<?xml version="1.0"?>
<svg xmlns:rdf="http://www.w3.org/1999/02/22-rdf-syntax-ns#" xmlns="http://www.w3.org/2000/svg" xmlns:cc="http://web.resource.org/cc/" xmlns:xlink="http://www.w3.org/1999/xlink" xmlns:dc="http://purl.org/dc/elements/1.1/" xmlns:svg="http://www.w3.org/2000/svg" space="preserve" viewBox="0 0 466.586 310.268" enable-background="new 0 0 466.586 310.268" overflow="visible">
  <g id="Layer_1">
    <g stroke-miterlimit="10" stroke="#000" stroke-width=".036" clip-rule="evenodd" fill-rule="evenodd">
      <path d="m94.689 136.19c-7.524-0.792-15.156-1.044-23.436-1.152-8.244-0.144-19.26 0.108-25.848 0.756-6.768 0.612-11.268 1.62-14.04 3.024-0.576-0.612-1.116-1.188-1.62-1.332-0.612-0.252-1.008-0.252-1.584 0l-0.288-3.744c2.088 0.252 3.528 0 4.86-0.756 1.224-0.864 3.6-2.556 2.412-3.96-1.296-1.476-6.84-4.392-9.972-4.716-3.276-0.396-8.172 1.26-9.144 2.628-1.008 1.368 0.072 3.096 3.24 5.472-0.756 0.972-1.116 1.98-1.08 3.024 0.036 0.972 0.432 1.98 1.332 3.024-3.492 0.072-6.048 2.628-7.812 7.524-1.728 4.968-2.304 10.836-2.7 21.888-0.576 10.98-0.756 25.309-0.54 43.561-3.888 1.764-6.264 4.86-7.524 9.432-1.296 4.536-1.26 12.204 0.252 17.712 1.44 5.364 3.996 11.053 8.64 14.725 4.536 3.672 13.14 6.479 18.864 7.164 5.724 0.575 10.62-0.576 15.084-3.601 0.252 0.433 0.972 0.721 2.16 1.008 1.224 0.217 2.7 0.396 4.824 0.54-0.612 5.4 0.828 11.628 4.86 18.685 3.96 7.092 10.116 19.26 18.612 23.58 8.352 4.14 21.78 5.472 31.248 1.512 9.432-4.104 17.46-12.528 24.768-25.668 11.268 2.088 22.536 3.348 34.488 4.176 11.988 0.685 24.768 0.288 36.396 0.36 11.448-0.036 22.932 0.18 31.536-0.18 8.315-0.324 14.508-1.152 18.577-2.089-1.441 5.977-0.037 11.448 4.5 16.416 4.463 4.933 14.508 10.908 22.355 13.212 7.848 2.196 16.955 2.629 24.264 0.181 7.164-2.628 14.148-9.937 18.324-15.265 4.031-5.399 5.867-10.8 5.652-16.596 5.328-0.432 11.879 0.18 19.943 1.692 8.027 1.548 17.279 3.852 28.045 7.344-1.945-4.284-2.701-7.812-2.701-11.124 0.037-3.276 0.973-6.048 2.953-8.316l-11.844-1.115c4.859-4.141 8.314-8.929 11.051-14.508 2.592-5.761 5.041-14.04 4.572-18.864-0.611-4.788-3.275-7.561-7.561-9.433-4.355-1.979-10.223-2.735-18.035-2.268 1.691-1.836 2.771-5.004 3.24-9.648 0.432-4.716 0.252-10.619-0.541-18.107 3.6-2.052 6.373-5.328 8.604-9.828 2.125-4.68 4.213-12.6 4.32-17.352-0.072-4.717-1.512-8.568-4.031-10.729-2.557-2.196-6.191-3.06-11.053-2.448-1.188-1.656-3.563-2.916-7.271-3.78-3.707-0.9-8.604-1.404-14.832-1.512 2.34-4.068 2.34-7.056 0-9.252-2.447-2.232-7.813-4.176-14.291-3.744-6.625 0.432-16.74 4.824-24.518 6.228-7.848 1.188-17.207 0.756-21.814 1.476-4.645 0.72-6.625 1.729-5.941 3.024-3.527-0.036-13.932-0.108-31.788-0.216-18.036-0.108-42.552-0.288-74.916-0.396-1.728-4.536-3.384-8.136-5.112-10.944-1.764-2.844-3.564-4.788-5.4-5.832 1.8-10.404 3.564-19.08 5.148-26.568 1.512-7.524 2.988-13.32 4.284-17.928-6.876-0.864-12.78-0.468-18 1.332-5.292 1.764-5.868 0.396-13.248 9.216-7.46 8.84-17.58 22.92-30.931 43.07z"/>
      <path d="m152.29 84.679c-4.536-0.36-8.388 0.072-12.24 1.296-3.888 1.116-4.824 0.108-10.296 5.868-5.58 5.688-17.424 21.06-22.464 28.476-5.112 7.416-7.668 12.492-7.812 15.624-0.252 0.288 1.188 0.864 4.32 1.728 3.168 0.792 7.74 1.908 14.256 3.204 1.044-4.788 2.988-10.008 6.228-16.056 3.168-6.156 7.848-13.284 12.636-19.98 4.67-6.724 9.74-13.348 15.36-20.151z" fill="#D0CCC8"/>
      <path d="m124.28 140.12c2.232-0.036 4.248 0.216 5.904 0.756 1.62 0.468 3.024 1.26 4.068 2.232l-10.8 0.396c0.25-1.12 0.54-2.24 0.83-3.39z" fill="#D0CCC8"/>
      <path d="m143.94 132.92l-7.812 6.228c-2.124-0.324-4.104-0.576-5.94-0.756-1.98-0.252-3.636-0.324-5.364-0.36 2.412-9.576 5.508-17.892 9.432-25.092 3.78-7.344 12.24-20.088 13.716-18.108 1.404 2.088-0.252 11.952-5.112 30.168-2.016-0.612-3.816-0.108-5.94 1.908-2.16 1.836-5.976 8.1-6.444 9.612-0.54 1.404 2.34 0.324 3.78-0.756 1.476-1.224 2.988-4.788 4.824-5.832 1.656-1.008 3.456-1.08 5.4-0.216-0.19 1.05-0.37 2.13-0.55 3.21z" fill="#C0C0C0"/>
      <path d="m269.51 144.83c-0.469-0.756 2.016-1.26 5.65-1.512 3.602-0.324 10.01 0.072 15.912-0.756 5.797-1.08 13.248-4.176 18.865-5.112 5.543-1.008 10.943-1.476 14.256-0.576 3.168 0.864 5.111 4.068 4.859 5.868-0.432 1.656-1.656 4.104-6.732 4.716-5.291 0.54-16.164-0.972-23.723-0.936-7.561-0.036-16.129 1.548-20.988 1.296-5.02-0.36-7.72-2.23-8.11-2.99z" fill="#128080"/>
      <path d="m96.993 137.78c-7.812-0.18-15.408-0.252-23.184-0.36-7.848-0.18-15.948-0.468-23.184-0.18-7.308 0.288-13.716 0.864-19.908 1.872l0.54 8.1c1.62 0.576 3.636 1.764 6.192 3.42 2.556 1.512 6.768 2.628 8.892 6.408 1.98 3.816 2.916 9.036 2.952 16.2 1.332-2.628 4.248-5.04 8.892-7.523 4.716-2.521 12.024-6.156 18.864-7.164 6.732-1.009 15.876-0.433 21.024 0.756 4.968 1.116 9.648 5.22 8.604 5.651-1.224 0.288-9.72-3.563-15.624-3.779-6.048-0.36-13.068-0.504-19.656 2.088-6.66 2.556-13.824 7.38-19.404 13.355-5.58 5.977-10.908 16.2-13.752 22.068-2.916 5.76-4.032 9.72-3.492 12.276 3.492-0.252 6.408 0.107 8.892 1.224 2.484 1.08 4.356 2.521 5.904 5.292 1.584 2.7 2.448 5.904 2.988 10.729 0.288 4.752 0.144 13.247-0.828 17.712-1.008 4.392-2.664 7.235-5.112 8.676 1.26 1.296 2.88 1.691 4.86 1.332 1.944-0.433 5.112-0.396 6.732-3.78 1.476-3.672 1.764-10.62 2.412-16.956 0.504-6.264-0.468-14.399 1.368-20.376 1.836-6.12 4.968-11.808 9.972-15.66 5.076-3.924 14.04-7.344 19.944-7.344 5.76 0.036 11.304 2.7 14.544 7.164 3.06 4.355 2.772 10.439 4.572 18.684 1.764 8.101 4.752 23.004 6.192 29.988 1.26 6.876 0.504 7.776 1.908 11.592 1.44 3.78 2.34 8.208 6.444 10.944 3.996 2.52 6.048 3.744 17.532 5.076 11.484 1.368 35.532 2.52 50.904 3.023 15.264 0.252 29.952-0.252 40.176-0.936 10.044-0.648 14.616-0.72 19.944-2.844 5.219-2.341 8.207-5.437 11.303-10.549 2.916-5.22 4.465-12.672 6.732-20.016 2.197-7.38 4.393-17.028 7.02-23.544 2.594-6.624 4.213-12.06 8.605-15.48 4.318-3.42 12.707-6.479 17.531-4.896 4.787 1.548 8.928 8.532 11.305 14.148 2.23 5.472 1.979 11.951 2.699 18.468 0.721 6.372 0.973 14.399 1.873 19.62 0.936 5.04 1.188 8.64 3.527 10.943 2.305 2.196 8.641 2.988 9.684 2.809 0.793-0.36-3.131-1.908-4.572-3.96-1.547-1.944-3.6-3.42-4.068-7.92-0.539-4.681-1.008-14.616 1.369-19.801 2.34-5.256 9.145-9.035 12.924-11.483 3.672-2.521 7.057-1.872 9.18-3.601 2.053-1.8 2.34-2.052 2.951-7.164 0.541-5.292 0.109-15.983 0.254-23.76 0.07-7.884 0.395-16.668 0-22.607-0.541-5.977 0.432-9.685-3.205-12.636-3.744-3.024-10.08-4.68-19.152-5.112-1.619 1.548-4.355 2.268-8.352 2.448-4.104 0.072-9.504-1.692-15.623-1.692-6.193-0.108-13.752 1.836-20.736 1.512-7.021-0.396-13.932-1.548-21.025-3.6-29.016-0.324-54.467-0.504-77.615-0.54-23.22-0.144-43.848-0.144-60.084 0-16.308-0.036-25.056 0.252-36.36 0.468-11.412 0.252-22.824 0.576-30.744 1.116-7.884 0.468-14.292 1.944-16.164 1.908-1.98-0.252-1.8-1.692 4.86-2.664 6.696-1.116 23.328-2.34 34.776-2.988 11.376-0.648 22.104-0.648 32.868-0.396-6.25-1.92-12.55-3.83-18.847-5.77z" fill="#2CB0CF"/>
      <path d="m35.001 195.02c-0.54 2.664-1.26 5.256-1.872 7.92-0.684 2.556-1.404 5.184-2.16 7.74l-4.032-0.181c0.288-1.584 0.468-3.456 0.252-5.472-0.144-2.088-0.684-4.464-1.332-6.984 0.612 1.152 1.692 1.368 3.24 0.937 1.584-0.59 3.42-1.81 5.904-3.97z" fill="#2CB0CF"/>
      <path d="m18.837 209.92l5.112 0.18c0.324-2.7 0.504-5.185 0.54-7.74-0.036-2.52-0.216-4.968-0.54-7.344-0.756 0.216-1.692-0.036-2.664-0.756-1.044-0.792-2.268-2.052-3.528-3.78-0.756 2.268-0.972 5.04-0.792 8.316 0.18 3.31 0.756 6.84 1.872 11.12z" fill="#C0C0C0"/>
      <path d="m32.589 194.44c3.708-2.592 6.624-5.724 8.892-9.792 2.304-4.104 4.284-9.72 4.572-14.328 0.072-4.716-1.512-10.151-3.78-13.392-2.304-3.276-5.616-5.292-9.936-6.048 1.62 6.156 2.556 12.132 2.952 17.928 0.36 5.796-0.468 12.168-0.828 16.596-0.468 4.24-1.044 7.31-1.872 9.03z" fill="#C0C0C0"/>
      <path d="m22.905 148.83c-0.144 2.052 1.764 6.3 2.412 12.06 0.54 5.724 0.756 16.452 1.08 21.888 0.252 5.292 0.288 7.596 0.54 9.972 0.108 2.305-0.036 3.637 0.54 3.601 0.648-0.252 1.908 0.072 2.952-4.716 0.9-5.004 2.304-17.748 2.412-24.336-0.072-6.588-1.008-11.628-2.124-14.725-1.224-3.096-3.312-3.384-4.608-3.924-1.368-0.74-3.132-1.79-3.204 0.19z" fill="#C0C0C0"/>
      <path d="m20.997 150.7c-1.368-0.108-3.276 6.48-4.32 11.7-1.08 5.184-2.772 13.645-1.872 18.864 0.9 5.112 5.364 10.332 7.02 11.483 1.44 0.973 1.728-0.575 2.124-5.472 0.288-5.147 0.468-18.107 0-24.3-0.504-6.22-1.764-12.12-2.952-12.27z" fill="#F7F619"/>
      <path d="m21.285 139.4l0.252 7.164c0.576-0.36 1.692-0.684 2.952-0.576 1.26 0 2.88 0.252 4.86 0.756 0.576-3.348 0.216-5.508-1.08-6.768-1.44-1.18-3.636-1.47-6.984-0.57z" fill="#C0C0C0"/>
      <path d="m21.537 133.17c-0.576 0.828-0.756 1.584-0.54 2.268 0.18 0.612 1.224 1.368 1.62 1.692 0.252 0.252 0.252 0.252 0 0h3.78l-0.54-3.384c-1.44-0.18-2.88-0.36-4.32-0.58z" fill="#C0C0C0"/>
      <path d="m22.365 131.08c1.476 0.468 5.148 0.468 6.444 0 1.26-0.576 2.088-2.124 1.08-2.988-1.152-0.936-6.156-2.34-7.812-2.268-1.728 0-2.484 1.512-2.412 2.448 0 0.87 1.08 2.27 2.7 2.81z" fill="#C0C0C0"/>
      <path d="m19.809 142.24l-2.232-1.584c-1.296 0.576-2.232 1.224-2.664 1.8-0.54 0.54-0.612 1.152-0.216 1.692h4.5c0.18-0.61 0.396-1.26 0.612-1.91z" fill="#C0C0C0"/>
      <path d="m11.349 154.56c0.036 0.396 0.036 0.972 0 1.584-0.036 0.576-0.108 1.188-0.216 1.979 2.412 0.036 4.032-0.216 5.004-0.611 0.828-0.505 1.404-1.621 0.612-2.088-0.9-0.54-2.556-0.83-5.4-0.86z" fill="#C0C0C0"/>
      <path d="m11.025 159.56c-0.072 0.288-0.18 0.899-0.18 1.439-0.072 0.648-0.108 1.225-0.108 2.124l3.24 0.288c0.792-0.792 1.188-1.548 1.332-2.124 0.036-0.684-0.18-1.188-0.792-1.655-1.152-0.01-2.304-0.04-3.492-0.08z" fill="#C0C0C0"/>
      <path d="m10.773 166.11c0 0.288-0.18 0.9-0.144 1.44-0.072 0.647-0.108 1.224-0.108 2.124l2.664 0.288c0.684-0.792 1.008-1.549 1.116-2.124 0.036-0.685-0.144-1.188-0.684-1.656-0.936 0-1.872-0.03-2.844-0.07z" fill="#C0C0C0"/>
      <path d="m10.449 171.55c-0.108 0.323-0.108 0.792-0.144 1.403-0.036 0.576-0.108 1.296-0.072 2.16l2.376 0.288c0.576-0.864 0.9-1.584 0.972-2.16 0-0.684-0.108-1.224-0.612-1.62-0.828 0-1.656-0.04-2.52-0.07z" fill="#C0C0C0"/>
      <path d="m11.961 150.56c0.036 0.396 0.036 0.972 0 1.584-0.036 0.576-0.108 1.188-0.216 1.98 2.412 0.036 4.032-0.216 5.004-0.612 0.828-0.504 1.404-1.62 0.612-2.088-0.9-0.54-2.556-0.83-5.4-0.86z" fill="#C0C0C0"/>
      <path d="m12.969 145.59c0.036 0.432 0.036 0.9 0 1.548-0.036 0.54-0.144 1.26-0.18 2.016 2.448-0.036 3.924-0.252 4.968-0.648 0.828-0.504 1.404-1.656 0.612-2.052-0.9-0.54-2.556-0.83-5.4-0.87z" fill="#C0C0C0"/>
      <path d="m9.873 176.44c-0.072 0.36-0.18 0.792-0.18 1.44-0.036 0.575-0.108 1.296-0.072 2.159l2.664 0.253c0.612-0.793 0.972-1.549 1.08-2.124 0.036-0.685-0.18-1.225-0.648-1.62-0.936-0.03-1.872-0.07-2.844-0.11z" fill="#C0C0C0"/>
      <path d="m9.909 181.52c-0.072 0.288-0.18 0.899-0.18 1.439-0.072 0.648-0.108 1.225-0.108 2.124l3.24 0.288c0.792-0.792 1.188-1.548 1.332-2.124 0.072-0.684-0.252-1.188-0.828-1.655-1.152-0.01-2.304-0.04-3.456-0.08z" fill="#C0C0C0"/>
      <path d="m9.873 186.67c-0.144 0.324-0.18 0.792-0.252 1.404-0.072 0.576-0.108 1.296-0.108 2.16l3.744 0.288c0.936-0.864 1.404-1.584 1.548-2.16 0.108-0.684-0.252-1.224-0.936-1.62-1.332 0-2.664-0.04-3.996-0.07z" fill="#C0C0C0"/>
      <path d="m9.945 192.64c-0.108 0.288-0.18 0.899-0.216 1.439-0.072 0.648-0.108 1.225-0.108 2.124l3.744 0.288c0.936-0.792 1.404-1.548 1.548-2.124 0.072-0.684-0.252-1.188-0.972-1.655-1.332 0-2.664-0.04-3.996-0.08z" fill="#C0C0C0"/>
      <path d="m9.765 198.08c-0.144 0.324-0.18 0.792-0.252 1.404-0.072 0.576-0.108 1.296-0.108 2.16l3.744 0.288c0.936-0.864 1.404-1.584 1.548-2.16 0.108-0.685-0.252-1.224-0.936-1.62-1.332 0-2.664-0.04-3.996-0.07z" fill="#C0C0C0"/>
      <path d="m10.485 203.55c-0.144 0.288-0.18 0.899-0.252 1.439-0.072 0.648-0.108 1.225-0.108 2.124l3.744 0.288c0.936-0.792 1.404-1.548 1.548-2.124 0.108-0.684-0.252-1.188-0.936-1.656-1.332 0-2.664-0.03-3.996-0.07z" fill="#C0C0C0"/>
      <path d="m13.869 212.37c-4.464 0.433-4.824 1.44-6.48 4.141-1.836 2.628-4.392 5.832-3.78 11.7 0.612 5.76 2.304 18.107 7.56 23.004 5.148 4.752 17.496 6.479 23.436 5.867 5.796-0.684 9.288-4.031 11.592-9.647 2.16-5.94 3.888-18.792 1.872-24.517-2.196-5.724-8.568-7.451-14.256-9.216-5.868-1.79-15.48-1.86-19.944-1.32z" fill="#C0C0C0"/>
      <path d="m338.8 227.13c-2.664 1.655-4.859 3.563-6.443 6.983-1.656 3.492-3.023 9.036-2.988 13.572 0.035 4.355 0.287 9.828 3.527 12.815 3.277 2.916 10.514 4.86 15.877 4.717 5.363-0.252 11.268-1.044 15.623-5.832 4.213-4.969 8.748-17.82 9.434-23.4 0.504-5.616-1.514-8.028-5.904-10.008-4.428-2.052-15.336-2.521-20.232-2.232-4.93 0.25-6.38 1.47-8.9 3.38z" fill="#C0C0C0"/>
      <path d="m328.83 268.06c8.891 0.432 16.523 0.612 23.184 0.54 6.588-0.072 12.023-0.432 16.451-0.937-1.367 3.637-1.908 6.408-1.619 8.856 0.252 2.34 1.332 3.996 3.24 5.112-5.904-2.088-12.24-3.744-19.404-5.112-7.236-1.332-14.904-2.376-23.436-2.988 0.51-1.8 1.05-3.63 1.59-5.47z" fill="#C0C0C0"/>
      <path d="m391.62 256.36c-3.709-0.144-6.443 0.288-8.352 1.692-1.98 1.296-3.529 4.392-2.988 6.228 0.504 1.729 2.627 3.168 6.229 4.32-5.221 6.156-6.84 10.548-4.861 13.032 1.98 2.483 7.309 3.06 16.416 1.872 5.76 4.428 9.938 6.012 12.672 4.896 2.664-1.188 3.889-5.147 3.529-11.88 4.68-1.8 7.775-4.032 9.684-6.984 1.871-3.06 2.447-8.892 1.332-10.548-1.297-1.656-4.213-1.403-8.893 0.756 2.664-2.844 4.285-5.651 4.861-8.279 0.395-2.7-0.289-6.624-1.621-7.74-1.332-1.152-3.348-0.792-6.191 0.936-2.016-1.367-4.213-1.943-6.193-1.332-2.016 0.504-4.211 2.017-6.191 4.536-3.852-1.943-6.947-2.592-9.432-2.088-2.592 0.54-5.363 3.168-5.4 5.112-0.01 1.79 1.79 3.52 5.39 5.46z"/>
      <path d="m396.48 258.23c-4.752-0.864-8.207-0.756-10.512 0.18-2.412 0.937-3.959 3.637-3.24 5.473 0.756 1.728 3.313 3.312 7.813 4.896-5.4 5.616-7.236 9.324-5.652 11.521 1.584 2.16 6.697 2.412 15.336 1.151 4.752 3.853 8.172 5.04 10.26 3.96 2.053-1.188 2.773-4.788 2.16-10.943 3.961-1.765 6.697-3.528 8.352-5.688 1.549-2.268 2.773-5.688 1.332-6.948-1.547-1.224-4.822-1.403-10.223-0.396 2.088-1.476 3.564-3.42 4.572-5.832 0.863-2.556 1.727-7.596 1.08-8.856-0.686-1.26-2.34-0.756-5.113 1.513-0.828-1.836-1.871-2.484-3.527-2.088-1.656 0.468-3.672 1.8-6.191 4.536-4.465-2.7-7.74-3.78-9.973-3.78-2.305 0.107-3.852 2.088-3.24 4.14 0.6 1.88 2.76 4.22 6.76 7.17z" fill="#C0C0C0"/>
      <path d="m54.801 258.16c-0.576 1.404-0.108 4.464 1.548 9.324 1.476 4.824 3.384 13.645 8.1 19.368 4.788 5.652 12.744 12.636 20.376 14.436 7.632 1.656 17.208-0.071 24.552-4.355 7.056-4.428 13.068-11.556 18.036-21.78-5.4-3.06-9.18-6.876-11.484-11.88-2.268-5.004-1.296-10.224-2.376-17.892-1.296-7.74-3.132-20.557-4.968-28.152-1.944-7.704-2.736-13.932-6.264-17.568-3.708-3.6-10.332-4.932-15.156-4.392-4.788 0.36-9.648 3.132-13.32 6.768-3.744 3.492-7.164 7.992-8.856 14.616-1.764 6.66-1.404 18.648-1.836 24.696-0.612 5.832-0.216 7.74-1.584 10.584-1.485 2.76-3.609 4.88-6.777 6.21z" fill="#404040"/>
      <path d="m81.945 242.07c-0.468 3.636-0.468 3.708 0.288 6.588 0.684 2.844 0.828 8.101 3.888 10.225 2.916 1.979 9.756 3.563 13.86 1.836 4.068-1.836 9.216-7.057 10.44-12.601 1.044-5.651-0.72-16.056-3.636-20.664-2.988-4.716-9.972-6.804-13.608-6.947-3.708-0.108-6.228 2.52-8.1 6.228-1.867 3.56-2.767 11.59-3.127 15.33z"/>
      <path d="m84.285 242.03c-0.504 3.313-0.432 3.349 0.216 5.94 0.576 2.52 0.936 7.596 3.564 9.252 2.592 1.512 8.46 2.016 11.916 0.396 3.384-1.691 7.2-5.327 8.1-10.08 0.648-4.932-1.404-14.184-3.672-18.432-2.376-4.284-7.092-6.479-9.972-6.588-3.06-0.144-5.544 2.196-7.308 5.616-1.729 3.17-2.449 10.58-2.845 13.89z" fill="#C0C0C0"/>
      <path d="m254.56 278.11c-0.936 0.54-1.08 1.98-0.287 4.716 0.576 2.664 2.053 7.813 4.715 11.16 2.773 3.168 7.201 6.012 11.736 8.244 4.393 2.16 9 4.392 14.652 4.752 5.652 0.252 13.033 0.072 18.793-2.916 5.65-3.204 11.412-9.072 14.902-15.372 3.35-6.3 5.041-13.572 5.221-22.104-2.557-0.757-4.248-3.024-5.508-6.948-1.26-4.068-1.439-10.908-1.801-16.632-0.395-5.761-0.107-11.881-0.791-17.389-0.793-5.58-1.873-11.844-3.924-15.731-2.268-3.96-5.508-6.588-8.893-7.488-3.383-0.9-7.813 0.252-10.943 2.196-3.168 1.836-5.184 3.239-7.848 8.784-2.773 5.399-5.977 16.235-8.102 23.76-2.123 7.452-2.303 14.724-4.715 20.844-2.592 5.94-7.561 11.34-10.439 14.796-2.87 3.38-5.17 5.11-6.76 5.33z" fill="#404040"/>
      <path d="m279.15 244.09c-0.576 3.636-0.432 3.708 0.289 6.588 0.648 2.844 0.936 8.1 3.924 10.224 2.951 1.98 9.684 3.564 13.824 1.836 4.068-1.836 9.215-7.056 10.439-12.6 1.045-5.652-0.721-16.057-3.637-20.664-2.986-4.716-9.971-6.805-13.607-6.948-3.744-0.072-6.156 2.448-8.064 6.192-1.97 3.52-2.65 11.69-3.16 15.37z"/>
      <path d="m281.49 244.05c-0.504 3.312-0.432 3.348 0.217 5.939 0.576 2.521 0.936 7.597 3.564 9.252 2.592 1.513 8.459 2.017 11.916 0.396 3.383-1.692 7.199-5.328 8.1-10.08 0.648-4.933-1.404-14.185-3.672-18.433-2.377-4.283-7.092-6.479-9.973-6.588-3.059-0.144-5.543 2.196-7.307 5.616-1.73 3.16-2.45 10.58-2.85 13.89z" fill="#C0C0C0"/>
      <path d="m144.98 113.37c-1.764-0.432-3.204-0.72-4.716-0.468-1.62 0.072-3.096 0.036-4.032 1.44-0.9 1.404-1.296 3.636-1.188 6.84-0.936-0.18-1.548 0.18-2.124 0.936-0.684 0.756-1.26 2.34-1.188 3.78 0.108 1.44 0.612 2.808 1.656 4.5-2.052 0.036-3.024 0.792-3.312 2.124-0.288 1.368-0.432 4.788 1.908 5.94 2.304 1.008 6.192 1.08 11.808 0.216 0.144-3.348 0.252-6.372 0.468-9.468 0.18-3.168 0.468-6.408 0.72-8.748 0.144-2.34 0.396-4.068 0.468-5.184 0.02-1.26-0.23-1.76-0.48-1.91z"/>
      <path d="m133.35 132.7c1.008 0.36 2.16 2.484 3.744 2.88 1.44 0.324 3.852-0.936 4.752-0.576 0.792 0.252 1.116 1.944 0 2.448-1.224 0.396-5.328 0.54-7.056 0.288-1.944-0.36-3.132-1.548-3.708-2.304-0.504-0.936 0-2.124 0.54-2.592 0.34-0.51 0.77-0.65 1.74-0.15z" fill="#E2B79C"/>
      <path d="m147.14 116.65c1.152-0.072 2.16 0.36 3.168 1.296 0.936 0.864 2.124 2.052 2.736 4.14 0.54 2.088 0.72 4.644 0.54 8.064l5.328 3.42c0.792-2.52 1.656-5.436 2.736-8.604 1.008-3.384 2.196-7.668 3.564-10.764 1.404-3.096 2.844-6.228 4.608-7.308 1.584-1.08 3.312-0.792 5.184 0.864 5.868-3.456 10.908-7.38 15.516-11.628 4.608-4.32 8.352-8.964 11.772-14.076l2.16-1.728c-0.252-0.648 0.324-4.392 1.872-11.088 1.512-6.804 3.852-16.56 7.164-29.412-2.628-1.116-4.392-2.844-5.58-5.04-1.188-2.412-2.124-6.948-1.44-8.46 0.612-1.476 3.672-1.296 5.292-0.288 1.476 0.937 2.772 2.808 3.888 5.76-0.396-4.32-0.252-8.712 0.288-13.176 0.504-4.572 1.548-10.836 2.988-13.788 1.368-3.132 4.536-6.228 5.472-4.14 0.864 2.196 0.864 7.74-0.144 17.064 2.268-5.436 4.14-9.072 6.012-10.908 1.764-1.836 4.176-1.512 4.752-0.144 0.324 1.224-0.72 3.852-1.873 7.596-1.116 3.744-2.592 8.496-4.572 14.652 2.7-4.86 5.184-8.063 7.163-9.612 1.98-1.656 4.068-0.828 4.896 0.144 0.721 0.936 0.793 3.168-0.18 5.436-1.045 2.16-2.951 4.608-5.868 7.488 3.024-1.404 5.364-1.836 7.165-1.584 1.871 0.288 3.203 1.908 3.455 3.312 0 1.296-1.332 2.916-3.168 4.428-2.053 1.332-5.797 1.476-8.316 3.888-2.52 2.448-4.068 4.644-6.876 10.476-2.952 5.724-8.568 17.46-10.62 23.544-2.16 5.976-2.88 9.936-2.16 12.168 1.764-0.108 2.628 0.468 2.736 1.872 0.072 1.296-1.296 3.276-2.16 6.336-0.972 2.988-1.8 6.264-3.312 11.916-1.656 5.652-4.32 15.732-5.904 21.924-1.548 6.156-2.628 10.944-3.24 14.76h-43.704c-2.196 0.288-3.96-0.252-5.688-1.62-1.62-1.476-3.06-4.572-4.32-6.66-1.404-2.052-2.7-3.924-4.032-5.616 0.88-4.97 1.78-9.94 2.68-14.9z"/>
      <path d="m138.25 114.92c-0.936 0.288-1.044 1.764-1.152 3.312-0.252 1.548-0.9 4.284 0 5.724 0.792 1.224 3.852 3.42 4.896 2.16 0.864-1.44 1.476-8.028 0.864-9.9-0.76-1.9-3.64-1.69-4.61-1.29z" fill="#E2B79C"/>
      <path d="m135.22 123.81c0.792 0.54 1.332 2.34 2.448 3.456 1.08 0.972 3.348 1.512 3.744 2.448 0.288 0.828-0.936 3.024-2.016 2.844-1.332-0.324-4.032-2.916-5.184-4.284-1.188-1.476-1.764-3.096-1.584-3.888 0.15-0.8 1.66-1.12 2.59-0.58z" fill="#E2B79C"/>
      <path d="m149.34 119.38c0.288-0.504 1.188 0.756 1.728 1.98 0.396 1.116 1.332 3.204 1.296 4.752-0.18 1.548-1.08 3.312-1.728 4.032-0.792 0.54-1.98 0.396-2.304-0.576-0.36-1.116 0.252-3.492 0.432-5.184 0.06-1.83 0.21-4.42 0.57-5z" fill="#E2B79C"/>
      <path d="m153.22 132.42c1.44 0.54 2.484 1.296 3.276 1.872 0.72 0.54 1.152 1.296 1.296 1.872-0.288 2.916-0.576 5.076-1.008 6.192-0.468 1.08-0.936 1.404-1.548 0.684-0.612 0.54-1.296 0.36-1.908-0.54-0.684-1.008-1.296-2.556-1.98-5.04 0.252-0.576 0.54-1.152 0.864-2.016 0.33-0.86 0.62-1.86 1.01-3.01z" fill="#E2B79C"/>
      <path d="m158.66 143.21c0.18-2.268 0.756-5.292 1.872-9.504 1.008-4.248 3.132-11.304 4.572-15.48 1.368-4.212 2.664-7.74 3.888-9.324 1.188-1.656 2.052-0.684 3.168-0.576 1.008 0.036 2.052 0.324 3.132 0.864 0.252 0.216 1.98-0.756 5.328-3.456 3.312-2.772 10.98-8.784 14.652-12.348 3.672-3.42 5.832-6.372 7.02-8.46 0.504 1.368 1.8 2.556 3.888 3.564 2.088 0.792 7.308 1.044 8.46 2.304 0.936 1.368-1.404 3.06-2.304 5.904-0.864 2.772-1.224 2.988-3.024 10.764-1.944 7.776-4.752 19.332-8.568 35.352-7.452 0.18-14.616 0.36-21.636 0.396-7.06 0.04-13.83 0.04-20.45 0z" fill="#F7F619"/>
      <path d="m207.19 118.52c-1.584 1.044-2.916 1.188-3.6 0.432-0.72-0.828-1.188-2.412-1.008-5.04-2.484-0.648-3.492-1.8-3.168-3.168 0.252-1.404 1.98-3.312 5.04-5.436-1.764-2.268-2.34-4.14-2.016-5.616 0.36-1.584 2.592-3.6 4.176-3.42 1.548 0.144 3.168 1.62 5.004 4.428-1.47 5.95-2.95 11.89-4.42 17.83z"/>
      <path d="m207.58 116.07c-1.188 1.188-2.088 1.764-2.7 1.728-0.72-0.144-1.188-1.188-1.008-2.16 0.108-1.044 0.828-2.196 2.016-3.744-2.304 0.468-3.6 0.324-3.888-0.288-0.324-0.756 0.9-3.096 1.872-3.708 0.828-0.612 1.98-0.756 3.312-0.144-2.052-2.988-3.06-5.148-3.168-6.624-0.072-1.512 1.44-2.556 2.592-2.16 1.008 0.252 2.196 1.548 3.564 3.888-0.85 4.38-1.71 8.77-2.58 13.2z" fill="#FB0F0C"/>
      <path d="m168.02 82.123c-0.324 5.22-0.18 10.152 0.576 14.796 0.684 4.572 0.72 9.576 3.6 12.78 2.808 3.204 9.108 7.2 13.212 6.156 3.996-1.296 8.136-7.596 10.764-13.212 2.556-5.796 3.204-16.02 4.284-20.376 0.828-4.284 0.468-3.132 1.296-5.004 0.864-2.016 2.808-4.356 3.6-6.336 0.684-2.088 0.828-4.32 0.288-5.58-0.72-1.296-2.844-1.836-3.888-2.016-1.008-0.252-1.728 0.036-2.16 0.72l0.144-2.016c1.62-1.296 3.06-2.304 4.464-3.024 1.332-0.72 2.484-1.152 3.6-1.296l-6.336-0.576c0.756-0.936 1.764-1.836 3.024-2.556 1.26-0.792 2.556-1.512 4.284-2.16-1.26-0.684-2.448-1.116-3.708-1.296-1.368-0.288-2.52-0.288-3.888-0.144 2.556-0.612 4.428-1.188 5.76-1.44 1.296-0.324 2.052-0.468 2.124-0.432-1.944-0.54-3.708-0.828-5.436-0.864-1.764-0.144-3.672 0.18-4.896 0.288-1.296 0.036-2.196 0.036-2.7 0 0.684-0.756 1.872-1.188 3.708-1.584 1.836-0.324 4.14-0.612 7.2-0.576l-5.184-1.008 4.896-1.548-6.48-2.16c-0.648-0.9-1.98-1.62-3.852-2.016-1.908-0.468-4.5-0.612-7.632-0.576-0.684-1.512-2.16-1.944-4.428-1.584-2.412 0.396-6.768 1.872-9.324 3.888-2.484 1.872-4.5 4.86-5.76 7.308-1.44 2.34-2.628 4.644-2.448 6.912 0.108 2.124 1.116 4.176 3.168 6.156-2.124 0.396-3.564 1.44-4.176 2.736-0.684 1.296-0.36 3.708 0.144 5.292 0.432 1.512 1.152 2.664 2.304 3.6 0 2.909-0.04 5.825-0.11 8.741z"/>
      <path d="m170.18 75.103c-0.288 2.268-0.432 4.032-0.288 5.436 0 1.26-0.036 1.98 0.864 2.592 0.756 0.54 2.052 1.296 4.32 1.008 2.232-0.396 5.94-1.08 9.18-3.024 3.24-2.088 8.064-8.388 9.756-8.748 1.44-0.432 0.324 2.412-0.288 6.588-0.648 4.176-1.944 13.824-3.312 18.252-1.404 4.248-3.168 7.38-5.148 7.596-2.16 0.108-5.076-3.384-7.2-6.444-2.16-3.132-3.924-7.056-5.436-11.916h-3.312c0.216 5.364 0.792 9.9 1.872 13.608 0.972 3.672 2.448 6.408 4.284 8.352 1.728 1.944 3.564 2.988 6.336 3.132 2.844-0.036 7.812-1.08 10.188-3.132 2.232-2.052 1.908-4.752 3.312-9.216 1.404-4.68 3.204-14.04 4.572-18.216 1.224-4.176 2.052-4.428 2.88-6.444 0.792-2.052 1.368-4.536 1.584-5.904 0.036-1.62-0.432-2.52-1.008-2.844-0.576-0.288-1.44 0.036-2.448 1.116l-2.304-3.132-6.156-0.144c0.144 1.728-0.288 3.204-1.152 4.284-0.972 1.08-2.736 1.8-4.176 2.16-1.584 0.36-3.24 0.54-4.572-0.144-1.332-0.828-2.34-2.304-3.168-4.572h-2.16c0.216 1.764 0.072 3.24-0.576 4.572-0.684 1.26-1.728 2.268-3.276 3.024-0.504 1.26-0.504 2.124 0 2.736 0.432 0.504 1.476 1.116 2.988 0.72 1.368-0.396 4.536-3.024 5.616-3.024 1.08-0.108 1.548 1.224 0.72 2.448-1.116 1.188-4.572 3.78-6.336 4.428-1.728 0.504-2.916-0.396-3.708-1.296-0.9-0.972-1.152-2.448-1.152-4.428-0.41 0.183-0.84 0.362-1.27 0.579z" fill="#E2B79C"/>
      <path d="m175.18 86.875c0.108 1.98 0.828 3.996 2.16 6.444 1.296 2.34 3.816 7.092 5.616 7.74 1.62 0.432 2.916-0.396 4.428-4.284 1.476-3.96 2.916-10.044 4.464-18.828-4.068 3.492-7.416 5.94-10.188 7.488-2.88 1.475-4.89 1.906-6.48 1.439z" fill="#fff"/>
      <path d="m172.05 60.594c0.972-0.288 1.656-0.144 2.448 0.144 0.684 0.288 1.296 0.864 1.836 1.728h2.736c-0.18-1.656 0.252-2.808 1.296-3.6 0.972-0.792 3.024-1.224 4.752-1.296 1.584-0.288 3.852-0.468 5.004 0 1.08 0.396 1.656 1.26 1.728 2.592l4.176-0.144c-1.152-1.116-1.728-1.98-1.728-2.592-0.036-0.72 1.548-0.684 1.44-1.296-0.288-0.828-2.304-1.548-2.592-2.556-0.324-0.972 1.116-2.484 0.72-2.88-0.612-0.396-2.736 0.252-3.744 0.144-1.116-0.288-1.188-1.656-2.304-1.728-1.224-0.18-3.672 1.08-4.428 1.008-0.756-0.216 0.36-1.764-0.144-1.872-0.828-0.18-2.124 0.612-3.744 0.864-1.584 0.144-4.14-0.36-5.292 0.144-1.08 0.468-0.864 1.8-1.584 2.592-1.008 0.576-3.456 0.036-3.6 1.44-0.07 1.512 0.76 3.817 2.99 7.308z" fill="#E2B79C"/>
      <path d="m170.04 56.851c1.116-0.36 2.268-0.684 3.456-0.576 1.224 0 3.384 0.288 3.564 0.72 0 0.396-2.016 1.152-3.132 1.584-1.224 0.324-2.52 0.468-3.888 0.432v-2.16z"/>
      <path d="m181.95 54.583c0.432-0.54 3.672-0.828 5.292-0.864 1.44-0.036 4.356 0.252 3.888 0.72-0.576 0.432-5.22 1.548-6.732 1.692-1.58-0.037-2.95-1.152-2.45-1.548z"/>
      <path d="m169.75 50.838c0.396 0.108 1.008 0.108 1.44-0.288 0.396-0.432 0.828-1.476 1.44-1.872 0.54-0.396 1.116-0.54 1.872-0.432 0.612-2.16 1.944-4.068 3.996-5.436 2.052-1.404 4.68-2.556 8.172-3.168-0.684-0.756-1.692-1.044-3.42-0.72-1.728 0.144-4.716 1.044-6.624 2.304-2.052 1.404-4.14 3.816-5.292 5.58-1.16 1.585-1.74 2.881-1.59 4.032z" fill="#EDEF01"/>
      <path d="m176.48 48.247c-0.072-1.476 0.936-2.808 2.88-3.996 1.908-1.404 5.652-2.88 8.892-3.312 3.168-0.396 6.66 0.036 10.332 1.152-4.464-0.576-8.244-0.288-11.34 0.72-3.168 1.044-5.652 2.808-7.452 5.436h-3.31z" fill="#EDEF01"/>
      <path d="m183.1 47.382c0.684-1.044 1.872-1.944 3.564-2.556 1.584-0.648 4.392-1.26 6.48-1.44 2.088-0.288 3.996-0.288 5.868-0.144 1.692 0.072 3.132 0.216 4.32 0.576-1.26 0.468-2.124 0.792-2.736 1.116-0.648 0.288-0.936 0.576-0.864 0.72-1.296 0.036-2.628 0.468-3.996 1.152-1.404 0.648-2.844 1.656-4.32 3.024-0.864-0.936-1.728-1.512-2.736-1.728-1.116-0.288-2.16 0.324-3.132 0.288-1-0.072-1.68-0.539-2.44-1.008z" fill="#EDEF01"/>
      <path d="m195.74 50.119c3.096-0.756 4.86-1.044 5.436-0.864 0.468 0.072-1.224 0.828-2.304 1.584-1.188 0.684-2.484 1.548-4.284 2.592-0.072-0.612-0.072-1.188 0.144-1.728 0.21-0.54 0.5-1.117 1-1.584z" fill="#EDEF01"/>
      <path d="m196.17 53.574c1.548-0.576 3.024-1.008 4.428-1.152 1.368-0.252 2.664-0.252 3.888 0-1.656 0.684-2.952 1.548-3.744 2.448-0.936 0.936-1.692 2.16-1.296 2.844 0.324 0.504 1.476 0.648 3.456 0.432l-3.6 2.736-2.304-0.72c-0.828-0.9-1.296-1.764-1.26-2.448-0.072-0.684 1.188-1.26 1.26-1.872 0.06-0.719-0.26-1.476-0.84-2.268z" fill="#EDEF01"/>
      <path d="m180.66 61.17c-0.576 1.008 0.036 2.628 0.576 3.888 0.468 1.152 1.008 2.52 2.448 2.988 1.404 0.324 4.752 0.684 5.868-0.72 1.008-1.512 1.152-6.732 0.288-8.028-0.972-1.368-3.708-0.54-5.292-0.144-1.6 0.288-3.4 1.009-3.9 2.016z" fill="#A16121"/>
      <path d="m172.63 62.754c-1.224 0.036-2.7 0.468-3.6 1.152-0.972 0.648-1.692 1.188-1.872 2.448-0.216 1.188-0.072 3.312 0.576 4.428 0.468 1.008 1.476 1.584 2.592 1.584 1.152-0.18 2.952-1.404 4.032-2.304 0.864-1.008 1.476-2.016 1.692-3.168 0.216-1.224 0.072-2.88-0.432-3.564-0.76-0.756-1.8-0.72-2.99-0.576z" fill="#A16121"/>
      <path d="m188.83 118.23c-0.252-1.692-0.252-2.952 0.288-4.176 0.504-1.26 1.368-2.592 2.592-2.88 1.116-0.432 3.384-0.144 3.888 0.864 0.324 1.008-0.108 2.736-1.584 5.184 1.26-0.612 2.232-0.612 3.312 0.144 1.044 0.648 2.916 2.628 2.7 4.14-0.396 1.368-1.872 2.952-4.716 4.464 0.864 1.548 1.296 2.844 1.152 4.032-0.216 1.08-1.08 2.808-2.016 2.844-0.936-0.108-2.232-0.972-3.744-2.988-0.936 2.016-1.764 3.204-2.88 3.564-1.152 0.252-2.988-0.972-3.564-1.728-0.684-0.936-0.36-2.304 0-3.276 0.288-1.008 1.008-1.872 2.016-2.592-2.196-1.584-3.636-3.024-4.464-4.32-0.828-1.332-0.972-2.844-0.432-3.564 0.576-0.828 2.232-1.44 3.6-1.296 1.25 0.11 2.43 0.54 3.84 1.62z"/>
      <path d="m190.12 120.64c-0.072-1.8 0.072-3.276 0.288-4.572s0.252-2.916 1.08-3.204c0.684-0.54 3.024-0.288 3.276 0.756 0.216 1.044-0.612 2.916-2.196 5.616 1.476-1.152 2.556-1.584 3.636-1.152 0.972 0.36 2.664 2.376 2.304 3.528-0.504 1.044-1.872 2.016-4.644 2.916 1.044 1.764 1.584 2.988 1.62 4.212-0.108 1.08-0.864 2.592-1.692 2.448-0.828-0.252-1.908-1.368-3.24-3.636-0.72 2.484-1.584 3.96-2.448 4.572-0.972 0.54-2.664-0.612-2.988-1.116-0.432-0.612 0.324-1.512 0.864-2.304 0.54-0.864 1.116-1.728 2.124-2.736-2.484-1.729-4.104-3.132-5.004-4.356-0.936-1.26-0.864-2.412-0.36-3.024 0.468-0.72 1.764-1.512 3.06-1.116 1.19 0.32 2.63 1.33 4.32 3.16z" fill="#FB0F0C"/>
      <path d="m171.55 126.08c-0.324 1.332-0.936 2.448-1.692 3.204-0.828 0.648-2.124 1.476-3.06 1.368-1.044-0.216-2.844-1.08-2.772-2.016-0.036-0.936 1.116-2.124 3.06-3.564-1.224 0.036-2.088-0.396-2.592-1.296-0.612-0.936-1.44-3.276-0.684-4.248 0.792-1.08 2.52-1.656 5.328-1.872-0.216-1.584 0-2.736 0.504-3.6 0.468-0.936 1.8-1.98 2.592-1.584 0.792 0.36 1.296 1.548 1.908 3.708 1.368-1.332 2.556-2.088 3.564-1.872 1.008 0 1.944 1.8 2.232 2.628 0.072 0.792-0.504 1.944-1.152 2.628-0.648 0.72-1.44 1.044-2.52 1.368 1.152 2.016 1.836 3.636 2.052 5.004s-0.324 2.412-0.936 2.988c-0.756 0.324-2.376 0.252-3.313-0.216-1.01-0.51-1.8-1.33-2.52-2.63z"/>
      <path d="m171.58 123.88c-0.648 1.368-1.26 2.556-1.836 3.564-0.684 0.864-1.296 2.052-1.98 2.16-0.792-0.072-2.592-0.792-2.34-1.728s1.44-2.124 3.708-3.708c-1.548 0.324-2.7 0.324-3.312-0.396-0.684-0.684-1.332-2.952-0.576-3.6 0.648-0.684 2.268-1.008 4.716-0.684-0.324-1.692-0.216-3.132 0.18-3.924 0.396-0.936 1.512-1.836 2.232-1.332 0.576 0.504 1.008 1.656 1.296 3.996 1.368-1.692 2.592-2.664 3.528-2.772s1.8 1.296 2.016 1.98c0 0.468-0.828 0.972-1.512 1.512-0.684 0.432-1.62 0.9-2.664 1.404 1.404 2.196 2.088 3.888 2.448 5.22 0.216 1.26-0.216 2.16-0.756 2.556-0.684 0.432-1.944 0.36-2.808-0.216-0.87-0.75-1.7-2.05-2.35-4.03z" fill="#FB0F0C"/>
      <path d="m160.32 144.62c-1.8-2.7-2.448-4.644-1.944-6.12 0.432-1.476 2.016-2.304 4.752-2.628 0.144-3.42 0.972-5.04 2.484-5.004 1.512 0 3.492 1.8 6.336 5.256 1.836-2.844 3.492-4.212 5.112-4.104 1.548 0 3.96 2.52 4.176 4.644 0.144 2.124-1.044 4.608-3.42 7.848-5.84 0.03-11.67 0.06-17.5 0.1z"/>
      <path d="m162.33 143.79c-1.656-1.692-2.52-2.844-2.592-3.852-0.18-1.044 0.936-1.872 1.944-1.908s2.304 0.54 4.032 1.728c-0.864-2.952-1.152-4.608-0.468-5.256 0.576-0.648 3.168 0.468 4.032 1.548 0.72 1.008 1.116 2.412 0.792 4.356 2.52-3.456 4.428-5.436 5.868-5.94 1.332-0.576 2.664 1.26 2.592 2.88-0.108 1.584-1.26 3.636-3.312 6.444h-12.88z" fill="#FB0F0C"/>
      <path d="m201.39 134.57c-0.684-1.8-1.584-3.276-2.844-4.572-1.332-1.296-3.564-3.6-4.608-3.024-1.044 0.432-1.62 2.448-1.584 5.904-1.368-1.008-2.556-1.296-3.564-1.008-1.044 0.288-2.736 1.512-2.592 2.7 0.072 1.08 0.936 2.232 2.88 3.6 0.504-0.036 0.504-0.036 0 0-0.648-0.072-2.448-0.252-3.168 0.144-0.72 0.36-1.188 1.26-1.008 2.304 0.144 0.9 0.54 2.232 1.584 3.6h12.636c0.75-3.19 1.51-6.4 2.26-9.64z"/>
      <path d="m199.99 135.01l-1.728 7.776-10.332 0.432c-0.576-1.116-0.72-1.98-0.72-2.592 0-0.72-0.036-1.008 0.864-1.296 0.756-0.36 2.088-0.504 3.996-0.576-2.124-1.188-3.312-2.196-3.708-3.168-0.36-1.044 0.432-2.592 1.404-2.7 0.9-0.108 2.052 0.504 3.744 1.98-0.108-2.34 0.18-3.816 0.72-4.572 0.504-0.72 1.548-0.72 2.592 0.144 0.98 0.8 1.99 2.27 3.18 4.58z" fill="#FB0F0C"/>
      <path d="m204.09 84.354c0.756 1.008 1.764 1.728 3.024 2.448 1.224 0.576 2.7 1.152 4.428 1.44 0.432-4.428 1.44-9.216 3.312-14.364 1.8-5.364 4.932-11.664 7.452-16.668 2.376-5.112 4.86-10.152 6.912-13.032 1.8-2.772 2.952-2.628 4.86-3.744 1.944-1.26 5.579-2.412 6.876-3.6 1.188-1.296 1.188-3.276 0.576-3.852-0.756-0.648-2.557 0-4.428 0.432-2.016 0.432-6.408 2.808-6.769 2.124-0.396-0.792 3.312-4.608 4.896-6.732 1.512-2.268 4.105-4.968 4.465-6.3 0.252-1.476-0.936-2.376-2.447-1.728-1.549 0.684-4.825 3.564-6.337 5.724-1.62 1.98-2.196 6.084-2.844 6.48-0.72 0.324-1.656-1.62-1.152-4.32 0.468-2.844 2.916-9.18 3.852-12.348 0.864-3.348 1.296-6.156 1.152-7.02-0.288-0.9-1.332-0.18-2.556 1.872-1.26 2.016-3.816 8.784-4.896 10.044-1.152 1.008-1.548-0.144-1.728-3.024-0.36-2.916 0.756-12.096 0.288-14.076-0.576-1.908-2.412-0.36-3.168 2.304-0.792 2.556-1.116 7.74-1.548 12.78-0.54 4.86-0.972 10.404-1.44 16.632-1.44-2.231-2.736-3.815-3.744-5.292-1.044-1.512-1.908-2.844-2.592-3.168-0.828-0.36-2.196-0.072-2.304 1.296-0.144 1.332 0.288 4.5 1.44 6.444 1.152 1.836 2.736 3.276 5.184 4.464-0.468 3.096-1.476 8.316-3.312 15.804-1.8 7.524-4.28 16.992-7.45 28.98z" fill="#E2B79C"/>
      <path d="m219.43 42.882c-0.648 1.44-1.116 3.024-1.404 5.148-0.36 2.052-0.504 4.356-0.576 7.056-1.368-0.252-2.232-1.116-2.448-2.592-0.324-1.584 0.108-4.716 0.864-6.336 0.72-1.656 1.91-2.7 3.57-3.276z"/>
      <path d="m436.69 238.26c-4.969-1.404-7.02-3.421-6.588-5.761 0.432-2.376 3.635-5.363 9.467-8.676 0.072-4.932 0.828-7.884 2.27-8.855 1.402-1.045 3.42-0.036 6.191 2.88-0.863-4.032-0.611-6.912 1.043-8.641 1.621-1.764 6.156-3.312 8.461-1.872 2.195 1.477 4.141 6.336 4.717 10.116 0.432 3.672-0.182 7.38-1.836 11.521 0.467 5.651-0.182 10.008-2.09 13.607-1.979 3.456-4.932 5.868-9.252 7.236-1.799 3.78-3.959 5.652-6.623 5.76-2.736 0.072-8.531-2.556-9.469-5.364-0.94-3 0.25-6.85 3.71-11.96z"/>
      <path d="m440.18 237.64c-5.76-2.052-8.389-3.78-8.029-5.58 0.396-1.836 3.637-3.348 10.117-4.932-1.26-5.832-1.297-9.072 0.18-10.116 1.439-1.08 4.104 0.432 8.279 4.14-1.404-5.436-1.547-9.036-0.432-10.943 1.117-1.944 5.256-2.124 7.02-0.396 1.693 1.764 2.701 7.488 2.881 10.512-0.037 2.952-0.828 5.04-2.664 6.805 0.973 6.804 0.576 11.699-1.045 14.832-1.691 3.096-4.715 4.283-9.07 3.708 0.035 4.067-0.865 6.336-2.701 6.804-1.871 0.396-7.74-1.62-8.424-4.104-0.81-2.51 0.49-6.04 3.87-10.72z" fill="#C0C0C0"/>
      <path d="m447.2 265.26c-0.684-2.629-0.684-4.753 0-6.372 0.576-1.729 2.34-3.276 3.924-3.528 1.512-0.252 3.348 0.396 5.363 2.088 2.521-1.26 4.645-1.404 6.373-0.432 1.656 0.936 3.313 2.88 3.707 5.976 0.182 3.061-0.684 9.648-1.619 11.988-0.936 2.231-2.195 2.592-3.924 1.224 0.324 3.601-0.217 6.372-2.053 8.46-1.943 2.088-6.875 4.824-8.676 3.889-1.764-1.116-2.268-4.5-1.656-10.297-6.516-0.575-9.828-1.943-10.08-4.104-0.28-2.25 2.6-5.16 8.65-8.9z"/>
      <path d="m448.6 265.61c-0.576-2.268-0.576-3.888 0-5.292 0.576-1.476 1.799-2.628 3.24-2.88 1.223-0.144 2.699 0.288 4.428 1.692 2.123-1.044 3.887-1.116 5.291-0.36 1.369 0.756 2.664 2.412 3.061 4.968 0.289 2.448-0.721 7.956-1.367 9.864-0.793 1.8-1.873 2.196-3.24 1.044 0.072 3.672-0.504 6.408-1.873 8.352-1.367 1.837-4.859 4.213-6.191 3.097-1.404-1.152-2.123-4.356-2.16-9.756-5.4-0.576-8.137-1.584-8.352-3.42-0.18-1.86 2.16-4.16 7.16-7.3z" fill="#C0C0C0"/>
      <path d="m354.93 169.57c0 6.948 1.943 12.564 4.32 12.564 2.412 0 4.355-5.616 4.355-12.564s-1.943-12.564-4.355-12.564c-2.36-0.01-4.31 5.61-4.31 12.56z" fill="#FB0F0C"/>
    </g>
  </g>
  <metadata>
    <rdf:RDF>
      <cc:Work>
        <dc:format>image/svg+xml</dc:format>
        <dc:type rdf:resource="http://purl.org/dc/dcmitype/StillImage"/>
        <cc:license rdf:resource="http://creativecommons.org/licenses/publicdomain/"/>
        <dc:publisher>
          <cc:Agent rdf:about="http://openclipart.org/">
            <dc:title>Openclipart</dc:title>
          </cc:Agent>
        </dc:publisher>
        <dc:title>Driving a car</dc:title>
        <dc:date>2007-11-22T23:17:52</dc:date>
        <dc:description>Adapted from AbiClipart project.&#xD;\nhttp://www.ibiblio.org/abiclipart</dc:description>
        <dc:source>http://openclipart.org/detail/8865/driving-a-car-by-gerald_g-8865</dc:source>
        <dc:creator>
          <cc:Agent>
            <dc:title>Gerald_G</dc:title>
          </cc:Agent>
        </dc:creator>
        <dc:subject>
          <rdf:Bag>
            <rdf:li>abiclipart</rdf:li>
            <rdf:li>car</rdf:li>
            <rdf:li>clip art</rdf:li>
            <rdf:li>clipart</rdf:li>
            <rdf:li>externalsource</rdf:li>
            <rdf:li>man</rdf:li>
            <rdf:li>people</rdf:li>
            <rdf:li>ride</rdf:li>
            <rdf:li>transportation</rdf:li>
          </rdf:Bag>
        </dc:subject>
      </cc:Work>
      <cc:License rdf:about="http://creativecommons.org/licenses/publicdomain/">
        <cc:permits rdf:resource="http://creativecommons.org/ns#Reproduction"/>
        <cc:permits rdf:resource="http://creativecommons.org/ns#Distribution"/>
        <cc:permits rdf:resource="http://creativecommons.org/ns#DerivativeWorks"/>
      </cc:License>
    </rdf:RDF>
  </metadata>
</svg>
